<svg xmlns="http://www.w3.org/2000/svg" version="1.1" data-icon="grid-three-up" data-container-transform="scale(1 1 ) translate(0 )" viewBox="0 0 16 20" x="0px" y="0px"><path d="M0 0v4h4v-4h-4zm6 0v4h4v-4h-4zm6 0v4h4v-4h-4zm-12 6v4h4v-4h-4zm6 0v4h4v-4h-4zm6 0v4h4v-4h-4zm-12 6v4h4v-4h-4zm6 0v4h4v-4h-4zm6 0v4h4v-4h-4z"/><text x="0" y="31" fill="#000000" font-size="5px" font-weight="bold" font-family="'Helvetica Neue', Helvetica, Arial-Unicode, Arial, Sans-serif">Created by useiconic.com</text><text x="0" y="36" fill="#000000" font-size="5px" font-weight="bold" font-family="'Helvetica Neue', Helvetica, Arial-Unicode, Arial, Sans-serif">from the Noun Project</text></svg>