<svg xmlns="http://www.w3.org/2000/svg" xmlns:xlink="http://www.w3.org/1999/xlink" xml:space="preserve" version="1.1" style="shape-rendering:geometricPrecision;text-rendering:geometricPrecision;image-rendering:optimizeQuality;" viewBox="0 0 512 640" x="0px" y="0px" fill-rule="evenodd" clip-rule="evenodd"><defs><style type="text/css">
   
    .fil0 {fill:black}
   
  </style></defs><g><path class="fil0" d="M237 251c-34,-34 -92,-10 -92,38 0,4 0,8 1,11l26 28 65 -77zm79 158l-96 17 21 -94 196 -189 75 78 -196 188zm-9 -9l-41 6 -25 -25 9 -39 56 58zm-187 -129c13,-61 89,-86 136,-41 2,-2 3,-4 5,-6 7,-7 19,-7 26,0l22 23 -84 80 -14 66 -212 0c0,-80 0,-227 0,-307 138,0 276,0 414,0l0 58 -36 35 0 -57 -342 0 0 207 55 -62c10,-9 20,-5 28,3zm294 64l0 58 -58 0 58 -58z"/></g></svg>